<svg width="353" height="218" viewBox="0 0 353 218" fill="none" xmlns="http://www.w3.org/2000/svg">
<path d="M47.3379 214H0.0234375V3.94141H47.3379V214ZM267.65 199.938C247.143 211.754 221.654 217.662 191.186 217.662C157.396 217.662 130.736 208.336 111.205 189.684C91.7715 170.934 82.0547 145.152 82.0547 112.34C82.0547 79.332 92.6992 52.4277 113.988 31.627C135.277 10.8262 163.598 0.425781 198.949 0.425781C221.215 0.425781 240.844 3.50195 257.836 9.6543V54.0391C241.625 44.6641 221.801 39.9766 198.363 39.9766C178.734 39.9766 162.719 46.373 150.316 59.166C138.012 71.8613 131.859 88.8535 131.859 110.143C131.859 131.725 137.377 148.424 148.412 160.24C159.545 172.057 174.535 177.965 193.383 177.965C204.711 177.965 213.695 176.354 220.336 173.131V132.115H178.295V94.3223H267.65V199.938ZM324.633 217.662C317.016 217.662 310.668 215.318 305.59 210.631C300.512 205.943 297.973 200.182 297.973 193.346C297.973 186.314 300.561 180.553 305.736 176.061C311.01 171.568 317.553 169.322 325.365 169.322C333.275 169.322 339.721 171.617 344.701 176.207C349.779 180.699 352.318 186.412 352.318 193.346C352.318 200.475 349.73 206.334 344.555 210.924C339.477 215.416 332.836 217.662 324.633 217.662Z" fill="#FFF500"/>
</svg>
