<svg width="75" height="75" viewBox="0 0 75 75" fill="none" xmlns="http://www.w3.org/2000/svg">
<path d="M37.1871 74.2329H37.0238C16.6091 74.2329 0 57.6188 0 37.1981V37.0348C0 16.614 16.6091 0 37.0238 0H37.1871C57.6019 0 74.211 16.614 74.211 37.0348V37.1981C74.211 57.6188 57.6019 74.2329 37.1871 74.2329ZM37.0238 2.5127C17.9932 2.5127 2.51196 17.9985 2.51196 37.0348V37.1981C2.51196 56.2343 17.9932 71.7201 37.0238 71.7201H37.1871C56.2178 71.7201 71.699 56.2343 71.699 37.1981V37.0348C71.699 17.9985 56.2178 2.5127 37.1871 2.5127H37.0238Z" fill="#1E1E1E"/>
<path d="M34.3302 38.4647C33.7072 37.6832 32.9938 37.0852 32.195 36.6806C32.9009 36.251 33.5088 35.7233 34.0111 35.0952C34.8577 34.0348 35.2872 32.7055 35.2872 31.1426C35.2872 29.8385 34.9431 28.64 34.2623 27.5821C33.5841 26.5243 32.5743 25.675 31.2605 25.0569C29.9744 24.4513 28.4245 24.1448 26.6586 24.1448H16.6133V50.0935H27.1208C28.8415 50.0935 30.3788 49.7794 31.6876 49.1613C33.0214 48.5331 34.0614 47.6536 34.7748 46.5505C35.4907 45.4424 35.8549 44.1836 35.8549 42.8091C35.8549 41.1985 35.3425 39.7386 34.3302 38.4672V38.4647ZM28.9948 33.7357C28.3743 34.2383 27.4675 34.4946 26.3044 34.4946H21.9587V28.7456H26.3044C27.4625 28.7456 28.3642 29.0094 28.9847 29.532C29.58 30.032 29.8689 30.7231 29.8689 31.6377C29.8689 32.5523 29.5826 33.2608 28.9948 33.7357ZM21.9587 39.0979H26.6235C27.8443 39.0979 28.7837 39.3943 29.4946 40.0049C30.1754 40.5904 30.507 41.3669 30.507 42.382C30.507 43.3971 30.2005 44.1132 29.5675 44.6484C28.9119 45.2037 27.9699 45.4852 26.7641 45.4852H21.9587V39.0979Z" fill="#1E1E1E"/>
<path d="M56.3776 34.1252C55.5688 32.6628 54.4233 31.5095 52.9714 30.7004C51.522 29.8913 49.8465 29.4817 47.9977 29.4817C46.1489 29.4817 44.3478 29.9038 42.8633 30.7355C41.3762 31.5697 40.2056 32.7683 39.3867 34.3036C38.5678 35.8363 38.1533 37.6354 38.1533 39.6506C38.1533 41.6658 38.5804 43.4674 39.4244 44.9976C40.2684 46.5304 41.449 47.7365 42.9361 48.5808C44.4207 49.425 46.1238 49.8522 48.0002 49.8522C50.3037 49.8522 52.2605 49.2667 53.8179 48.1134C55.3753 46.96 56.4655 45.4574 57.0609 43.6508L57.1036 43.5227H52.5469L52.5192 43.578C51.6426 45.3545 50.1228 46.254 47.9977 46.254C46.5182 46.254 45.2521 45.7841 44.2348 44.8619C43.2426 43.9599 42.6723 42.7538 42.5392 41.2738H57.4402L57.4527 41.1909C57.5482 40.5954 57.5959 39.9219 57.5959 39.1908C57.5959 37.2911 57.1865 35.5876 56.3776 34.1252ZM44.3051 34.3865C45.2747 33.5196 46.4579 33.0824 47.8194 33.0824C49.324 33.0824 50.6026 33.5272 51.62 34.4066C52.6097 35.2609 53.1347 36.4092 53.1799 37.8163H42.5819C42.7829 36.3866 43.3631 35.2333 44.3076 34.389L44.3051 34.3865Z" fill="#1E1E1E"/>
<path d="M52.8359 24.7402H42.9111V27.0922H52.8359V24.7402Z" fill="#1E1E1E"/>
</svg>
