<svg width="75" height="75" viewBox="0 0 75 75" fill="none" xmlns="http://www.w3.org/2000/svg">
<path d="M37.1871 74.2329H37.0238C16.6091 74.2329 0 57.6188 0 37.1981V37.0348C0 16.614 16.6091 0 37.0238 0H37.1871C57.6018 0 74.211 16.614 74.211 37.0348V37.1981C74.211 57.6188 57.6018 74.2329 37.1871 74.2329ZM37.0238 2.5127C17.9932 2.5127 2.51196 17.9985 2.51196 37.0348V37.1981C2.51196 56.2343 17.9932 71.7201 37.0238 71.7201H37.1871C56.2178 71.7201 71.699 56.2343 71.699 37.1981V37.0348C71.699 17.9985 56.2178 2.5127 37.1871 2.5127H37.0238Z" fill="#1E1E1E"/>
<path d="M59.5989 38.0499C59.604 37.972 59.6065 37.8916 59.609 37.8112L59.6517 36.8136L59.614 36.8036C59.5412 31.5319 57.6622 26.5367 54.2736 22.5465L54.3138 22.5038L53.2462 21.4057C48.9633 17.006 43.2285 14.5837 37.0943 14.5837C33.9443 14.5837 30.9148 15.2195 28.0688 16.4683L28.0462 16.4507L27.1218 16.908C25.8984 17.5136 24.7429 18.2221 23.6653 19.0237C22.9469 19.5589 22.2636 20.1318 21.6155 20.7449C21.3744 20.9736 21.1408 21.2072 20.9097 21.446C17.7421 24.72 15.5918 28.9187 14.8508 33.512L14.6122 34.9995L14.6649 35.012C14.5996 35.7106 14.5645 36.4166 14.5645 37.1202C14.5645 43.0929 16.9458 48.8193 21.1383 53.0281L21.1207 53.0608L22.0602 53.9025C26.1974 57.6113 31.5353 59.6567 37.0918 59.6567C37.4861 59.6567 37.878 59.6466 38.2674 59.6265C41.0004 59.4883 43.6455 58.8601 46.1424 57.7621C46.1424 57.7621 46.1449 57.7621 46.1474 57.7621L47.1245 57.3324V57.3022C54.3967 53.6714 59.2523 46.2514 59.5964 38.1127C59.5964 38.1102 59.5964 38.1077 59.5964 38.1052C59.5964 38.1027 59.5964 38.0976 59.5964 38.0951V38.0599L59.5989 38.0499ZM56.2982 39.2811C56.2882 39.3615 56.2781 39.4419 56.2681 39.5223C56.2505 39.6605 56.2329 39.7988 56.2128 39.9345C56.2003 40.0224 56.1852 40.1103 56.1701 40.1982C56.15 40.3264 56.1274 40.4545 56.1048 40.5827C56.0872 40.6757 56.0696 40.7661 56.0495 40.8591C56.0244 40.9822 56.0018 41.1053 55.9742 41.226C55.9541 41.3189 55.9315 41.4119 55.9089 41.5049C55.8812 41.6255 55.8511 41.7436 55.821 41.8617C55.7958 41.9546 55.7707 42.0501 55.7456 42.1431C55.7129 42.2586 55.6803 42.3768 55.6476 42.4924C55.62 42.5853 55.5924 42.6808 55.5622 42.7738C55.5271 42.8893 55.4894 43.0024 55.4542 43.118C55.4241 43.211 55.3914 43.3039 55.3588 43.3969C55.3186 43.51 55.2784 43.6231 55.2382 43.7361C55.2055 43.8266 55.1704 43.9196 55.1352 44.01C55.0925 44.1231 55.0473 44.2336 55.0021 44.3467C54.9669 44.4372 54.9292 44.5251 54.8915 44.6156C54.8438 44.7261 54.7961 44.8367 54.7458 44.9473C54.7056 45.0352 54.668 45.1232 54.6278 45.2086C54.575 45.3192 54.5223 45.4297 54.4695 45.5402C54.4293 45.6257 54.3866 45.7086 54.3439 45.794C54.2887 45.9046 54.2284 46.0152 54.1706 46.1257C54.1279 46.2061 54.0852 46.2865 54.0425 46.3669C53.9797 46.48 53.9144 46.5931 53.8491 46.7062C53.8064 46.7816 53.7637 46.8569 53.7209 46.9298C53.6481 47.0529 53.5728 47.176 53.4974 47.2966C53.4597 47.3569 53.422 47.4197 53.3844 47.4826C53.2789 47.6484 53.1708 47.8118 53.0603 47.9751C53.0503 47.9927 53.0377 48.0078 53.0277 48.0253C52.9046 48.2037 52.779 48.3796 52.6509 48.5555C52.6132 48.6057 52.573 48.656 52.5353 48.7063C52.4449 48.8294 52.3519 48.95 52.259 49.0706C52.2087 49.1359 52.156 49.1988 52.1032 49.2641C52.0203 49.3671 51.935 49.4726 51.8495 49.5732C51.7918 49.641 51.7315 49.7089 51.6737 49.7767C51.5908 49.8722 51.5079 49.9676 51.4225 50.0631C51.3597 50.1335 51.2969 50.2013 51.2341 50.2692C51.1512 50.3596 51.0658 50.4501 50.9804 50.5406C50.9151 50.6084 50.8473 50.6762 50.7794 50.744C50.694 50.8295 50.6086 50.9174 50.5207 51.0029C50.4504 51.0707 50.3825 51.136 50.3122 51.2039C50.2243 51.2868 50.1364 51.3697 50.0485 51.4501C49.9756 51.5155 49.9028 51.5808 49.8299 51.6461C49.7395 51.7265 49.6491 51.8044 49.5561 51.8823C49.4808 51.9451 49.4079 52.0079 49.33 52.0708C49.2371 52.1461 49.1442 52.2241 49.0487 52.2969C48.9733 52.3572 48.8955 52.4175 48.8176 52.4779C48.7221 52.5507 48.6242 52.6236 48.5287 52.6964C48.4509 52.7542 48.3705 52.8121 48.2926 52.8698C48.1946 52.9402 48.0942 53.0105 47.9937 53.0784C47.9133 53.1336 47.8354 53.189 47.755 53.2417C47.652 53.3096 47.5465 53.3774 47.4436 53.4427C47.3632 53.4929 47.2828 53.5457 47.2024 53.596C47.1271 53.6437 47.0492 53.6865 46.9713 53.7342C46.6071 48.9802 45.542 44.0578 43.8514 39.3238C48.0389 38.3816 52.2891 38.3514 56.3033 39.2459C56.3033 39.2585 56.3033 39.2711 56.3007 39.2811H56.2982ZM42.6758 36.3136C42.1081 34.9693 41.5002 33.6552 40.8471 32.3838C45.0522 30.4716 48.8678 27.9011 52.0329 24.8532C54.6353 28.0167 56.15 31.8887 56.3836 35.992C51.94 35.1 47.2627 35.2105 42.6733 36.3136H42.6758ZM18.3324 32.4415C18.4052 32.1476 18.4856 31.8536 18.5735 31.5621C18.5886 31.5093 18.6062 31.454 18.6213 31.4013C18.7092 31.1173 18.8021 30.8359 18.9026 30.557C18.9101 30.5369 18.9152 30.5193 18.9227 30.4992C18.9353 30.4641 18.9478 30.4288 18.9604 30.3937C19.0634 30.1173 19.1714 29.8459 19.2844 29.5745C19.302 29.5343 19.3171 29.4966 19.3347 29.4564C19.3372 29.4489 19.3422 29.4414 19.3447 29.4313C19.4628 29.1549 19.5884 28.8836 19.7215 28.6147C19.7416 28.572 19.7642 28.5293 19.7843 28.484C19.92 28.2127 20.0606 27.9463 20.2088 27.6825C20.2314 27.6398 20.2541 27.5996 20.2792 27.5594C20.4249 27.3031 20.5781 27.0493 20.7364 26.798C20.7539 26.7704 20.7715 26.7427 20.7891 26.7151C20.7991 26.6975 20.8117 26.6799 20.8243 26.6623C20.985 26.4111 21.1533 26.1648 21.3242 25.9236C21.3543 25.8809 21.3869 25.8357 21.4171 25.7929C21.5929 25.5492 21.7763 25.308 21.9647 25.0718C21.9948 25.0341 22.0275 24.9964 22.0576 24.9587C22.2485 24.7225 22.4445 24.4888 22.648 24.2602C22.6731 24.23 22.7007 24.2024 22.7258 24.1722C22.9343 23.9385 23.1503 23.7124 23.3714 23.4888C23.3965 23.4636 23.4191 23.441 23.4442 23.4159C23.6603 23.2023 23.8788 22.9912 24.1049 22.7877C24.125 22.7701 24.1451 22.75 24.1652 22.7324C24.1777 22.7224 24.1878 22.7124 24.2003 22.7023C24.4264 22.5013 24.6575 22.3053 24.8911 22.1118C24.9288 22.0816 24.9665 22.049 25.0042 22.0189C25.2428 21.8279 25.484 21.6445 25.7326 21.4636C25.7753 21.4334 25.8181 21.4007 25.8633 21.3706C26.112 21.1922 26.3657 21.0188 26.6244 20.8529C26.6646 20.8278 26.7073 20.8002 26.7475 20.7751C27.0137 20.6067 27.2825 20.4434 27.5588 20.2876C27.5789 20.2775 27.599 20.265 27.6191 20.2549C30.852 23.0692 33.8136 26.6623 36.2854 30.7655C30.322 32.8636 24.0245 33.4718 18.3148 32.5019C18.3198 32.4817 18.3249 32.4591 18.3299 32.4365L18.3324 32.4415ZM38.0262 17.805C38.1292 17.8101 38.2322 17.8201 38.3352 17.8251C38.5437 17.8377 38.7496 17.8528 38.9556 17.8704C39.0762 17.8829 39.1968 17.898 39.3174 17.9106C39.5032 17.9307 39.6891 17.9533 39.875 17.9809C40.0031 17.9985 40.1287 18.0211 40.2543 18.0412C40.4327 18.0714 40.6085 18.1016 40.7843 18.1342C40.9124 18.1594 41.0406 18.1844 41.1687 18.2121C41.342 18.2498 41.5153 18.2874 41.6861 18.3302C41.8142 18.3603 41.9398 18.393 42.0654 18.4257C42.2363 18.4709 42.4071 18.5187 42.5779 18.5689C42.701 18.6041 42.8241 18.6418 42.9471 18.6795C43.1205 18.7347 43.2938 18.7925 43.4671 18.8528C43.5827 18.893 43.6982 18.9307 43.8138 18.9734C43.9996 19.0438 44.1855 19.1167 44.3689 19.1921C44.4669 19.2323 44.5648 19.2674 44.6603 19.3102C44.924 19.4232 45.1853 19.5413 45.444 19.6644C45.4692 19.677 45.4968 19.6896 45.5219 19.7021C45.7832 19.8278 46.0419 19.9609 46.2956 20.0991C46.3885 20.1494 46.479 20.2022 46.5694 20.2549C46.7427 20.3529 46.916 20.4509 47.0894 20.5564C47.1949 20.6193 47.2953 20.6871 47.3983 20.7524C47.5541 20.8504 47.7073 20.9484 47.8605 21.0514C47.9686 21.1243 48.0741 21.1972 48.1796 21.2726C48.3252 21.3756 48.471 21.4786 48.6141 21.5867C48.7196 21.6646 48.8226 21.745 48.9281 21.8254C49.0688 21.9359 49.2095 22.0465 49.3476 22.162C49.4481 22.245 49.5486 22.3304 49.6491 22.4158C49.7018 22.461 49.7546 22.5113 49.8073 22.5565C46.8482 25.406 43.2586 27.7981 39.2973 29.5695C36.8757 25.4562 33.9819 21.8003 30.8043 18.8227C32.8139 18.1292 34.9189 17.7774 37.0892 17.7774C37.4032 17.7774 37.7147 17.7849 38.0262 17.8V17.805ZM17.8149 35.6653C19.7542 35.992 21.7512 36.1553 23.7758 36.1553C28.4431 36.1553 33.2635 35.2959 37.8705 33.6049C38.4784 34.7733 39.0511 35.9769 39.5836 37.2132C39.3148 37.3036 39.0486 37.3941 38.7823 37.492C32.0251 39.9922 26.4259 44.4422 22.7962 50.1284C19.5758 46.588 17.7597 41.9471 17.7597 37.1177C17.7597 36.6327 17.7798 36.1477 17.8149 35.6653ZM36.2352 56.4328C36.1422 56.4278 36.0493 56.4203 35.9563 56.4152C35.7654 56.4052 35.577 56.3926 35.3861 56.3751C35.2756 56.365 35.1676 56.3524 35.0571 56.3398C34.8862 56.3223 34.7129 56.3022 34.5421 56.2795C34.4266 56.2645 34.311 56.2469 34.1955 56.2293C34.0322 56.2042 33.8689 56.179 33.7056 56.1489C33.5876 56.1288 33.4695 56.1062 33.354 56.081C33.1932 56.0484 33.0349 56.0157 32.8767 55.9805C32.7586 55.9554 32.6431 55.9278 32.5275 55.8976C32.3693 55.8599 32.211 55.8172 32.0553 55.777C31.9397 55.7468 31.8267 55.7142 31.7136 55.6815C31.5554 55.6363 31.3971 55.586 31.2389 55.5358C31.1283 55.5006 31.0203 55.468 30.9098 55.4303C30.7465 55.375 30.5833 55.3147 30.4225 55.2569C30.322 55.2192 30.219 55.184 30.1185 55.1438C29.9427 55.076 29.7669 55.0031 29.591 54.9277C29.5081 54.8926 29.4252 54.8599 29.3423 54.8247C29.0911 54.7141 28.8425 54.5986 28.5963 54.478C28.5913 54.478 28.5862 54.4729 28.5812 54.4704C28.3275 54.3473 28.0788 54.2166 27.8301 54.0809C27.7573 54.0407 27.6844 53.9955 27.6091 53.9553C27.4383 53.8598 27.2675 53.7618 27.0992 53.6613C27.0087 53.606 26.9183 53.5483 26.8279 53.4905C26.6797 53.3975 26.5315 53.3045 26.3858 53.2065C26.2903 53.1437 26.1948 53.0758 26.1019 53.0105C25.9637 52.915 25.8281 52.8196 25.6925 52.7191C25.5945 52.6487 25.499 52.5758 25.4036 52.5029C25.3307 52.4477 25.2579 52.3899 25.185 52.3321C28.423 46.9951 33.6026 42.8165 39.8951 40.4872C40.1815 40.3817 40.4729 40.2837 40.7642 40.1857C42.5578 45.1357 43.6229 50.3043 43.864 55.2267C43.5852 55.3323 43.3038 55.4302 43.0225 55.5207C42.9471 55.5458 42.8693 55.5659 42.7939 55.5886C42.5728 55.6564 42.3493 55.7242 42.1257 55.7845C42.0152 55.8147 41.9022 55.8398 41.7891 55.87C41.5982 55.9177 41.4073 55.963 41.2139 56.0057C41.0933 56.0333 40.9702 56.0559 40.8471 56.081C40.6612 56.1187 40.4754 56.1514 40.287 56.1841C40.1639 56.2042 40.0383 56.2243 39.9127 56.2419C39.7218 56.2695 39.5309 56.2947 39.3375 56.3148C39.2169 56.3298 39.0988 56.3424 38.9782 56.3549C38.7672 56.375 38.5562 56.3901 38.3452 56.4027C38.2422 56.4102 38.1417 56.4178 38.0388 56.4228C37.7248 56.4379 37.4083 56.4479 37.0918 56.4479C36.8054 56.4479 36.5215 56.4404 36.2377 56.4278L36.2352 56.4328Z" fill="#1E1E1E"/>
</svg>
