<svg width="75" height="75" viewBox="0 0 75 75" fill="none" xmlns="http://www.w3.org/2000/svg">
<path d="M37.1871 74.2328H37.0238C16.6091 74.2328 0 57.6188 0 37.1981V37.0347C0 16.614 16.6091 0 37.0238 0H37.1871C57.6018 0 74.211 16.614 74.211 37.0347V37.1981C74.211 57.6188 57.6018 74.2328 37.1871 74.2328ZM37.0238 2.5127C17.9932 2.5127 2.51196 17.9985 2.51196 37.0347V37.1981C2.51196 56.2343 17.9932 71.7201 37.0238 71.7201H37.1871C56.2178 71.7201 71.699 56.2343 71.699 37.1981V37.0347C71.699 17.9985 56.2178 2.5127 37.1871 2.5127H37.0238Z" fill="#1E1E1E"/>
<path d="M48.1995 15.8477H26.0139C19.8847 15.8477 14.8984 20.8354 14.8984 26.9664V47.269C14.8984 53.4 19.8847 58.3877 26.0139 58.3877H48.1995C54.3287 58.3877 59.315 53.4 59.315 47.269V26.9664C59.315 20.8354 54.3287 15.8477 48.1995 15.8477ZM18.8196 26.9664C18.8196 22.9988 22.0475 19.77 26.0139 19.77H48.1995C52.1659 19.77 55.3938 22.9988 55.3938 26.9664V47.269C55.3938 51.2365 52.1659 54.4654 48.1995 54.4654H26.0139C22.0475 54.4654 18.8196 51.2365 18.8196 47.269V26.9664Z" fill="#1E1E1E"/>
<path d="M37.1068 47.4572C42.8065 47.4572 47.4461 42.8188 47.4461 37.115C47.4461 31.4111 42.809 26.7727 37.1068 26.7727C31.4047 26.7727 26.7676 31.4111 26.7676 37.115C26.7676 42.8188 31.4047 47.4572 37.1068 47.4572ZM37.1068 30.6975C40.6462 30.6975 43.5249 33.5771 43.5249 37.1175C43.5249 40.6579 40.6462 43.5375 37.1068 43.5375C33.5675 43.5375 30.6888 40.6579 30.6888 37.1175C30.6888 33.5771 33.5675 30.6975 37.1068 30.6975Z" fill="#1E1E1E"/>
<path d="M48.4029 28.4438C49.9378 28.4438 51.1887 27.195 51.1887 25.6572C51.1887 24.1194 49.9403 22.8706 48.4029 22.8706C46.8656 22.8706 45.6172 24.1194 45.6172 25.6572C45.6172 27.195 46.8656 28.4438 48.4029 28.4438Z" fill="#1E1E1E"/>
</svg>
