<svg width="75" height="75" viewBox="0 0 75 75" fill="none" xmlns="http://www.w3.org/2000/svg">
<path d="M37.1871 74.2329H37.0239C16.6091 74.2329 0 57.6188 0 37.1981V37.0348C0 16.614 16.6091 0 37.0239 0H37.1871C57.6019 0 74.211 16.614 74.211 37.0348V37.1981C74.211 57.6188 57.6019 74.2329 37.1871 74.2329ZM37.0239 2.5127C17.9932 2.5127 2.51196 17.9985 2.51196 37.0348V37.1981C2.51196 56.2343 17.9932 71.7201 37.0239 71.7201H37.1871C56.2178 71.7201 71.699 56.2343 71.699 37.1981V37.0348C71.699 17.9985 56.2178 2.5127 37.1871 2.5127H37.0239Z" fill="#1E1E1E"/>
<path d="M18.3556 25.0946C17.4111 24.2176 16.9414 23.1322 16.9414 21.8406C16.9414 20.5491 17.4136 19.4158 18.3556 18.5364C19.3001 17.6594 20.5159 17.2197 22.0055 17.2197C23.4951 17.2197 24.6632 17.6594 25.6052 18.5364C26.5497 19.4133 27.0194 20.5164 27.0194 21.8406C27.0194 23.1648 26.5472 24.2176 25.6052 25.0946C24.6607 25.9715 23.4624 26.4112 22.0055 26.4112C20.5486 26.4112 19.3001 25.9715 18.3556 25.0946ZM26.2256 30.125V57.0109H17.7327V30.125H26.2256Z" fill="#1E1E1E"/>
<path d="M54.4976 32.7809C56.3489 34.791 57.2733 37.55 57.2733 41.0628V56.536H49.2074V42.1533C49.2074 40.3818 48.7477 39.0049 47.8309 38.0249C46.914 37.045 45.6781 36.5524 44.1308 36.5524C42.5834 36.5524 41.3474 37.0424 40.4306 38.0249C39.5137 39.0049 39.054 40.3818 39.054 42.1533V56.536H30.9404V30.0496H39.054V33.5623C39.8754 32.3914 40.9833 31.4667 42.3749 30.7858C43.7665 30.1049 45.3315 29.7656 47.0723 29.7656C50.172 29.7656 52.6488 30.7707 54.4976 32.7809Z" fill="#1E1E1E"/>
</svg>
