<svg width="75" height="75" viewBox="0 0 75 75" fill="none" xmlns="http://www.w3.org/2000/svg">
<path d="M37.1871 74.2329H37.0238C16.6091 74.2329 0 57.6188 0 37.1981V37.0348C0 16.614 16.6091 0 37.0238 0H37.1871C57.6019 0 74.211 16.614 74.211 37.0348V37.1981C74.211 57.6188 57.6019 74.2329 37.1871 74.2329ZM37.0238 2.5127C17.9932 2.5127 2.51196 17.9985 2.51196 37.0348V37.1981C2.51196 56.2343 17.9932 71.7201 37.0238 71.7201H37.1871C56.2178 71.7201 71.699 56.2343 71.699 37.1981V37.0348C71.699 17.9985 56.2178 2.5127 37.1871 2.5127H37.0238Z" fill="#1E1E1E"/>
<path fill-rule="evenodd" clip-rule="evenodd" d="M33.8332 46.9221C33.7905 47.0704 33.7504 47.196 33.7177 47.3217C31.8212 54.7542 31.6102 56.4051 29.6609 59.8575C28.7315 61.4983 27.684 63.0537 26.526 64.5412C26.3953 64.7096 26.2722 64.9257 26.011 64.8729C25.7246 64.8126 25.702 64.5563 25.6719 64.3251C25.3604 62.0662 25.1871 59.8023 25.2624 57.5207C25.3604 54.5507 25.7271 53.5305 29.5554 37.4291C29.6106 37.1829 29.5478 36.9794 29.4675 36.7582C28.5506 34.2857 28.3697 31.7756 29.171 29.2327C30.9043 23.7399 37.1289 23.3203 38.2166 27.8507C38.8873 30.6524 37.1139 34.321 35.7524 39.7434C34.6245 44.216 39.8896 47.3971 44.3885 44.1305C48.5383 41.1203 50.1485 33.9038 49.842 28.788C49.2391 18.5889 38.0584 16.3852 30.9671 19.6693C22.8359 23.4309 20.9871 33.5118 24.6596 38.1201C25.1243 38.7056 26.0009 39.0649 25.8477 39.6579C25.6116 40.5801 25.4031 41.5098 25.1469 42.4269C24.956 43.1104 23.8683 43.3591 23.1775 43.0777C21.8236 42.5299 20.6957 41.6681 19.7813 40.5323C16.664 36.6703 15.7722 29.0317 19.8944 22.564C24.4611 15.4003 32.9566 12.5006 40.7135 13.38C49.9776 14.4329 55.833 20.7649 56.9282 27.9487C57.4281 31.2202 57.0689 39.2885 52.4771 44.9924C47.1944 51.5455 38.6311 51.9802 34.6798 47.9574C34.3758 47.6483 34.1322 47.289 33.8332 46.9196V46.9221Z" fill="#1E1E1E"/>
</svg>
