<svg width="75" height="75" viewBox="0 0 75 75" fill="none" xmlns="http://www.w3.org/2000/svg">
<path d="M37.1871 74.2328H37.0238C16.6091 74.2328 0 57.6188 0 37.1981V37.0347C0 16.614 16.6091 0 37.0238 0H37.1871C57.6019 0 74.211 16.614 74.211 37.0347V37.1981C74.211 57.6188 57.6019 74.2328 37.1871 74.2328ZM37.0238 2.5127C17.9932 2.5127 2.51196 17.9985 2.51196 37.0347V37.1981C2.51196 56.2343 17.9932 71.7201 37.0238 71.7201H37.1871C56.2178 71.7201 71.699 56.2343 71.699 37.1981V37.0347C71.699 17.9985 56.2178 2.5127 37.1871 2.5127H37.0238Z" fill="#1E1E1E"/>
<path d="M44.0954 47.6058C34.9192 47.6058 27.4537 40.1355 27.4512 30.9566C27.4537 28.6299 29.3477 26.7378 31.6688 26.7378C31.9074 26.7378 32.1435 26.7579 32.3696 26.7981C32.867 26.881 33.3392 27.0494 33.7738 27.3032C33.8366 27.3408 33.8793 27.4012 33.8893 27.4715L34.859 33.5849C34.8715 33.6578 34.8489 33.7281 34.8012 33.7809C34.2661 34.3739 33.5829 34.8011 32.8218 35.0147L32.455 35.1177L32.5932 35.472C33.8441 38.6581 36.3913 41.2034 39.5789 42.4598L39.9331 42.6005L40.0361 42.2337C40.2496 41.4723 40.6767 40.7888 41.2695 40.2536C41.3122 40.2134 41.37 40.1933 41.4277 40.1933C41.4403 40.1933 41.4529 40.1933 41.4679 40.1959L47.5795 41.1658C47.6524 41.1783 47.7127 41.2185 47.7504 41.2814C48.0016 41.7161 48.1699 42.1909 48.2553 42.6884C48.2955 42.9096 48.313 43.1432 48.313 43.387C48.313 45.7112 46.4215 47.6033 44.0954 47.6058Z" fill="#1E1E1E"/>
<path d="M60.368 35.1025C59.8732 29.5092 57.311 24.3205 53.1537 20.4936C48.9713 16.6442 43.5454 14.5234 37.8709 14.5234C25.4165 14.5234 15.2833 24.6597 15.2833 37.1177C15.2833 41.2988 16.4363 45.3719 18.6192 48.9198L13.751 59.6994L29.3377 58.0384C32.0481 59.1491 34.9168 59.7119 37.8683 59.7119C38.6445 59.7119 39.4409 59.6717 40.2397 59.5888C40.943 59.5134 41.6539 59.4029 42.3522 59.2622C52.7819 57.154 60.3957 47.8946 60.4559 37.2383V37.1177C60.4559 36.4392 60.4258 35.7608 60.3655 35.105L60.368 35.1025ZM29.9381 53.307L21.3145 54.2267L23.8893 48.5203L23.3743 47.8293C23.3366 47.7791 23.299 47.7288 23.2563 47.671C21.0206 44.5829 19.84 40.9345 19.84 37.1202C19.84 27.1749 27.9285 19.084 37.8709 19.084C47.1852 19.084 55.0803 26.3533 55.8415 35.6327C55.8817 36.1302 55.9043 36.6302 55.9043 37.1227C55.9043 37.2634 55.9017 37.4016 55.8992 37.5498C55.7083 45.8694 49.8982 52.9352 41.7694 54.7343C41.149 54.8725 40.5135 54.978 39.8804 55.0458C39.2223 55.1212 38.5466 55.1589 37.8759 55.1589C35.487 55.1589 33.166 54.6966 30.973 53.7819C30.7294 53.6839 30.4907 53.5784 30.2671 53.4704L29.9406 53.312L29.9381 53.307Z" fill="#1E1E1E"/>
</svg>
